<svg xmlns="http://www.w3.org/2000/svg" width="512" height="512">
    <path fill="#daa520" d="M356.708 403.705c6.866 2.305-4.212 7.096 0 0zm6.592-3.662c-1.828 5.29-1.794-4.883 0 0zm0 10.986c-3.53-.673 3.171-3.104 0 0zm-13.184 30.762c-6.095-28.746.48-58.374-4.768-87.273-2-7.238-.85-37.043 1.656-13.863 3.41 33.212 3.635 66.815 3.283 100.098zm0 13.184c-12.105-7.748 10.717-13.11 0 0zm-1.465 13.671c-3.642-7.647 6.124-8.585 0 0zm-2.93 17.579c-6.527-6.97 7.735-4.673 0 0zm-2.929-91.065c-4.918 1.702 1.534-4.483 0 0zm-5.127-35.889c-4.843-11.718 3.86-17.67 1.849-2.155 1.019 8.252.74 18.766-.793 4.792zm.732-181.64c2.427 4.708-5.673 3.332 0 0zm-.732 8.545c3.37 2.346-3.048 1.48 0 0zm7.324-22.461c.629 16.11 6.625 37.825-5.573 50.403-4.26-17.083 5.283-33.472 5.573-50.403zm.733-3.662c3.372 2.347-3.05 1.479 0 0zm3.418 93.506c4.934 7.932-1.039 22.402-2.413 6.318-4.058-7.471-.216-31.12 2.104-10.004l.309 3.686zm-35.4-58.594c-6.92-3.163 5.749-3.69 0 0zm-4.395 13.183c-5.918-.93 4.198-4.208 0 0zm-9.522 16.114c1.985-12.571 9.181-10.163 0 0zm-2.197 3.662c4.115.52-3.825.79 0 0zm-15.38 17.578c3.175 18.118-19.542-5.142-2.546-9.012 11.176-6.822 7.76 3.865 2.546 9.012zm-19.288-5.371c-9.545-16.668 21.02 4.496.94 4.397l-.584-1.773zm-42.725-68.36c-10.977-1.844-17.235-36.054-4.645-15.095 2.522 4.65 4.38 9.77 4.645 15.095zm-26.367 265.625.688 2.75zm-7.324-86.914c-6.862-6.779 1.778-26.042.475-7.488l.229 3.78zm.732 4.395c-4.471.43 2.323-5.288 0 0zm-4.394-48.096c-4.372-.865 3.475-2.927 0 0zM170.185 86.322c-1.913-19.225 9.425 15.567 0 0zm1.22 186.035c-9.157-6.613 4.223-25.18.123-6.707l-.122 3.352zm-.732 4.395c-4.749-3.34 3.488-3.942 0 0zm0-138.672c-7.18-6.719 1.437-23.255.128-6.408l-.032 3.204zm-1.465-66.406c4.515 5.253-4.18 1.948 0 0zm-2.197-8.79c4.995 4.208-3.315 6.806 0 0zM372.089 6c-13.457 30.64-17.36 65.224-36.492 93.37-13.5 27.397-21.633 57.243-37.357 83.576-5.65 15.956-16.211 52.465-37.407 30.268-12.948-16.815-23.01-35.756-35.912-52.708-10.256-14.983-19.937-30.682-25.452-48.102 4.153-10.867-2.01-23.004-11.556-24.096-4.086-11.78.96-30.632-14.31-35.421 3.734 22.86-16.46-23.453-12.376 1.702 5.135 19.712 5.398 50.84-5.45 63.524-23.552-11.072-4.75 20.218-3.035 30.567 3.731 24.913 2.246 50.223 7.704 75.04 6.56 42.915-1.109 86.29 3.274 129.279-10.09 23.746 18.077 38.551 18.608 59.435-.774 21.838 18.383 36.602 18.461 57.726-.574 10.367 11.681 40.518 8.543 14.524-3.165-42.807-19.847-83.981-17.22-127.327-3.492-32.118-3.87-64.447-.564-96.592 1.241-24.48-2.064-48.434-2.392-72.828-4.116-16.346 9.553-27.61 16.99-8.602 17.486 21.795 34.484 44.914 42.982 71.874 9.775 8.78-3.814 43.262 16.13 34.98 13.058-17.837 24.24-36.998 36.66-55.273 4.524-8.474 19.022-41.065 22.839-16.094 1.055 31.235 10.612 62.67 3.212 93.877-1.16 25.188 6.022 49.843 6.616 75 3.725 33.293 8.8 66.63 7.957 100.2-.45 8.441 9.976 21.394 9.82 5.424 9.013-22.471 4.383-47.82 12.357-70.176 4.151-23.933-4.56-48.011-5.397-71.84-3.91-9.012-7.99-28.741 5.06-27.607-5.08-31.315-12.73-62.936-8.306-94.903 4.606-46.658-3.2-95.345 11.63-140.437-6.416-16.753-12.034-32.516-2.2-49.481 2.435-9.57 4.448-19.24 6.583-28.879Z"/>
</svg>
